<svg width="746" height="386" viewBox="0 0 746 386" fill="none" xmlns="http://www.w3.org/2000/svg">
<path d="M746 375.5C746 275.911 706.702 180.401 636.751 109.981C566.8 39.5615 471.926 7.51875e-06 373 0C274.074 -7.51874e-06 179.2 39.5615 109.249 109.981C39.2981 180.401 1.49374e-05 275.911 0 375.5L29.1858 375.5C29.1858 283.704 65.409 195.667 129.887 130.757C194.364 65.8474 281.815 29.3814 373 29.3814C464.185 29.3814 551.636 65.8474 616.113 130.757C680.591 195.667 716.814 283.704 716.814 375.5H746Z" fill="#FF1616"/>
<path d="M718 370.5C718 279.398 681.652 192.028 616.952 127.609C552.252 63.1901 464.5 27 373 27C281.5 27 193.748 63.1901 129.048 127.609C64.3481 192.028 28 279.398 28 370.5L58.4371 370.5C58.4371 287.435 91.5785 207.773 150.57 149.038C209.562 90.302 289.573 57.3048 373 57.3048C456.427 57.3048 536.438 90.302 595.43 149.038C654.422 207.773 687.563 287.435 687.563 370.5H718Z" fill="#FF914D"/>
<path d="M693 368.5C693 286.416 659.286 207.693 599.274 149.65C539.263 91.608 457.869 59 373 59C288.131 59 206.738 91.6079 146.726 149.65C86.7142 207.693 53 286.415 53 368.5L81.2315 368.5C81.2315 293.657 111.971 221.88 166.689 168.958C221.406 116.036 295.618 86.3052 373 86.3052C450.382 86.3052 524.594 116.036 579.311 168.958C634.029 221.88 664.768 293.657 664.768 368.5H693Z" fill="#FFDE59"/>
<path d="M668 372C668 296.679 636.972 224.442 581.743 171.182C526.513 117.921 451.606 88 373.5 88C295.394 88 220.487 117.921 165.257 171.182C110.028 224.442 79 296.678 79 372L104.982 372C104.982 303.324 133.272 237.46 183.629 188.899C233.986 140.337 302.285 113.055 373.5 113.055C444.715 113.055 513.014 140.337 563.371 188.899C613.728 237.46 642.018 303.324 642.018 372H668Z" fill="#7ED957"/>
<path d="M649.767 366.618C643.254 295.751 611.25 229.98 560.074 182.288C508.898 134.596 442.267 108.45 373.336 109.009C304.404 109.568 238.18 136.793 187.735 185.309C137.291 233.825 106.292 300.107 100.857 371.071L122.237 372.817C127.249 307.377 155.835 246.255 202.352 201.515C248.87 156.776 309.939 131.671 373.504 131.155C437.07 130.64 498.513 154.751 545.706 198.73C592.898 242.709 622.41 303.36 628.417 368.71L649.767 366.618Z" fill="#8C52FF"/>
<path d="M627.866 367.055C621.872 301.294 592.424 240.262 545.335 196.007C498.245 151.752 436.936 127.489 373.509 128.008C310.081 128.527 249.146 153.79 202.729 198.81C156.313 243.83 127.79 305.336 122.789 371.187L147.443 373.217C151.955 313.791 177.696 258.285 219.584 217.657C261.472 177.029 316.463 154.23 373.703 153.762C430.942 153.294 486.271 175.19 528.766 215.127C571.262 255.065 597.837 310.143 603.246 369.488L627.866 367.055Z" fill="#7F00FF"/>
<rect width="746" height="18" transform="translate(0 368)" fill="#CCEAF7"/>
</svg>
